<svg xmlns="http://www.w3.org/2000/svg" width="200" height="60" fill="none" viewBox="0 0 200 60"><g clip-path="url(#clip0)"><path fill="#A6A6A6" d="M184.073 0.000192595H15.9357C15.3229 0.000192595 14.7173 0.000192595 14.1061 0.00315559C13.5944 0.0061186 13.0868 0.0147261 12.5702 0.0219706C11.4479 0.0336772 10.3283 0.121196 9.22098 0.283767C8.11526 0.449876 7.04417 0.76304 6.04395 1.21267C5.04496 1.6661 4.13214 2.25528 3.33863 2.95885C2.54095 3.66044 1.87602 4.47138 1.36942 5.3605C0.861412 6.24784 0.50916 7.19871 0.324826 8.18027C0.13874 9.16058 0.0386054 10.1522 0.0253209 11.1462C0.0098108 11.6005 0.00817288 12.0562 0 12.5105V46.7543C0.00817288 47.2143 0.0098108 47.6599 0.0253209 48.12C0.0386094 49.114 0.138744 50.1056 0.324826 51.0859C0.508651 52.068 0.860924 53.0194 1.36942 53.9071C1.87579 54.7933 2.54081 55.601 3.33863 56.2987C4.12913 57.0054 5.04254 57.595 6.04395 58.0449C7.04417 58.4957 8.11514 58.8108 9.22098 58.9794C10.3284 59.1407 11.448 59.2283 12.5702 59.2414C13.0868 59.2514 13.5944 59.2572 14.1061 59.2572C14.7173 59.2602 15.3229 59.2602 15.9357 59.2602H184.073C184.674 59.2602 185.284 59.2602 185.885 59.2572C186.394 59.2572 186.917 59.2514 187.426 59.2414C188.546 59.229 189.663 59.1414 190.768 58.9794C191.878 58.8096 192.953 58.4946 193.958 58.0449C194.958 57.5947 195.871 57.0051 196.661 56.2987C197.456 55.5982 198.123 54.7912 198.636 53.9071C199.14 53.0188 199.489 52.0674 199.67 51.0859C199.857 50.1055 199.96 49.1141 199.98 48.12C199.987 47.6599 199.987 47.2143 199.987 46.7543C200 46.216 200 45.6808 200 45.1338V14.128C200 13.5854 200 13.0472 199.987 12.5105C199.987 12.0562 199.987 11.6005 199.98 11.1462C199.96 10.1521 199.857 9.16066 199.67 8.18021C199.489 7.19922 199.14 6.24842 198.636 5.36044C197.604 3.57831 195.968 2.12766 193.958 1.21253C192.953 0.764006 191.878 0.450925 190.768 0.283633C189.664 0.120346 188.546 0.0327971 187.426 0.0217632C186.917 0.0145335 186.394 0.00585192 185.885 0.002963C185.284 0 184.674 0 184.073 0V0.000192595Z"/><path fill="#000" d="M14.1141 57.9638C13.6049 57.9638 13.108 57.958 12.6027 57.9479C11.5561 57.9358 10.5119 57.8551 9.47875 57.7063C8.51537 57.5592 7.58212 57.2856 6.70977 56.8946C5.84542 56.5067 5.05706 55.9982 4.3749 55.3885C3.68286 54.7859 3.10671 54.087 2.66927 53.3196C2.22702 52.5471 1.92095 51.7191 1.76173 50.8644C1.58979 49.9461 1.49676 49.0174 1.48345 48.0866C1.47286 47.7742 1.45898 46.7338 1.45898 46.7338V12.5104C1.45898 12.5104 1.47376 11.486 1.48354 11.1851C1.49628 10.2557 1.58877 9.32857 1.76019 8.41163C1.91971 7.55461 2.22601 6.72423 2.6685 5.94923C3.10433 5.18228 3.67729 4.48289 4.36515 3.87817C5.05225 3.2677 5.84313 2.75656 6.70895 2.36338C7.57929 1.97357 8.51078 1.70192 9.47222 1.55753C10.5088 1.40726 11.5566 1.32601 12.6068 1.31448L14.1149 1.29639H185.877L187.403 1.3152C188.443 1.32616 189.482 1.40668 190.509 1.55608C191.48 1.70228 192.421 1.97583 193.301 2.36772C195.036 3.16009 196.447 4.4137 197.338 5.95285C197.773 6.7225 198.075 7.5461 198.232 8.39572C198.406 9.32018 198.503 10.2546 198.523 11.1916C198.528 11.6112 198.528 12.0619 198.528 12.5104C198.541 13.0659 198.541 13.5947 198.541 14.1278V45.1337C198.541 45.6719 198.541 46.1971 198.528 46.7266C198.528 47.2084 198.528 47.6497 198.521 48.1039C198.502 49.0242 198.406 49.942 198.235 50.8499C198.079 51.7107 197.775 52.5452 197.333 53.324C196.892 54.0831 196.32 54.776 195.636 55.3769C194.953 55.9899 194.163 56.5014 193.297 56.8917C192.419 57.2858 191.479 57.5604 190.509 57.7063C189.476 57.8558 188.431 57.9366 187.385 57.9479C186.895 57.958 186.383 57.9638 185.885 57.9638L184.073 57.9667L14.1141 57.9638Z"/><path fill="#fff" d="M41.3974 30.0746C41.4154 28.8381 41.786 27.6257 42.4746 26.5502C43.1632 25.4747 44.1476 24.571 45.3361 23.9234C44.5811 22.9676 43.585 22.181 42.4271 21.6261C41.2691 21.0712 39.9812 20.7633 38.6655 20.7268C35.8589 20.4656 33.138 22.2154 31.7078 22.2154C30.25 22.2154 28.048 20.7527 25.6768 20.7959C24.143 20.8399 22.6483 21.2352 21.3381 21.9434C20.028 22.6517 18.9472 23.6487 18.201 24.8373C14.9686 29.798 17.3797 37.0885 20.476 41.0983C22.0252 43.0618 23.8357 45.2551 26.2048 45.1773C28.523 45.0921 29.3888 43.867 32.1872 43.867C34.9595 43.867 35.7719 45.1773 38.189 45.1279C40.6766 45.0921 42.2439 43.1557 43.7387 41.1736C44.8518 39.7745 45.7083 38.2282 46.2765 36.592C44.8313 36.0502 43.598 35.1432 42.7303 33.9843C41.8627 32.8253 41.3991 31.4656 41.3974 30.0746Z"/><path fill="#fff" d="M36.8324 18.0908C38.1887 16.6475 38.8569 14.7924 38.6951 12.9194C36.6229 13.1124 34.7088 13.9902 33.3341 15.3781C32.662 16.0562 32.1473 16.845 31.8193 17.6995C31.4913 18.554 31.3565 19.4574 31.4226 20.358C32.4591 20.3675 33.4845 20.1684 34.4215 19.7756C35.3586 19.3829 36.1829 18.8068 36.8324 18.0908Z"/><path fill="#fff" d="M70.7019 40.2074H62.7907L60.8909 45.18H57.54L65.0334 26.7827H68.5148L76.0081 45.18H72.6001L70.7019 40.2074ZM63.6101 37.9128H69.881L66.7896 29.8427H66.7031L63.6101 37.9128Z"/><path fill="#fff" d="M92.1913 38.4741C92.1913 42.6423 89.6745 45.3202 85.8764 45.3202C84.9143 45.3649 83.9575 45.1684 83.1155 44.7534C82.2735 44.3384 81.5803 43.7215 81.1154 42.9736H81.0435V49.6172H77.9375V31.7668H80.944V33.9978H81.0011C81.4874 33.2534 82.1923 32.6397 83.0407 32.2222C83.8891 31.8046 84.8494 31.5988 85.8193 31.6265C89.6597 31.6265 92.1913 34.3175 92.1913 38.4741ZM88.9988 38.4741C88.9988 35.7585 87.4156 33.9732 84.9999 33.9732C82.6268 33.9732 81.0305 35.7961 81.0305 38.4741C81.0305 41.1767 82.6268 42.9866 84.9999 42.9866C87.4156 42.9866 88.9988 41.2143 88.9988 38.4741Z"/><path fill="#fff" d="M108.846 38.4741C108.846 42.6423 106.329 45.3202 102.531 45.3202C101.569 45.3649 100.612 45.1684 99.7698 44.7534C98.9278 44.3384 98.2346 43.7215 97.7697 42.9735H97.6978V49.6172H94.5918V31.7668H97.5983V33.9978H97.6554C98.1417 33.2534 98.8465 32.6397 99.695 32.2222C100.543 31.8046 101.504 31.5988 102.474 31.6265C106.314 31.6265 108.846 34.3175 108.846 38.4741ZM105.653 38.4741C105.653 35.7585 104.07 33.9732 101.654 33.9732C99.2811 33.9732 97.6848 35.7961 97.6848 38.4741C97.6848 41.1767 99.2811 42.9866 101.654 42.9866C104.07 42.9866 105.653 41.2143 105.653 38.4741H105.653Z"/><path fill="#fff" d="M119.853 40.0542C120.083 41.8785 122.083 43.0764 124.815 43.0764C127.433 43.0764 129.317 41.8785 129.317 40.2335C129.317 38.8055 128.181 37.9505 125.491 37.3645L122.801 36.7902C118.99 35.9742 117.221 34.3943 117.221 31.8306C117.221 28.6564 120.341 26.4761 124.773 26.4761C129.158 26.4761 132.165 28.6564 132.266 31.8306H129.131C128.943 29.9946 127.231 28.8864 124.729 28.8864C122.226 28.8864 120.514 30.0077 120.514 31.6396C120.514 32.9403 121.608 33.7056 124.283 34.2915L126.57 34.7892C130.828 35.6819 132.597 37.1981 132.597 39.8891C132.597 43.331 129.504 45.4867 124.585 45.4867C119.982 45.4867 116.875 43.3816 116.674 40.054L119.853 40.0542Z"/><path fill="#fff" d="M139.3 28.5938V31.768H142.178V33.9483H139.3V41.3428C139.3 42.4915 139.877 43.0268 141.141 43.0268C141.483 43.0215 141.824 43.0003 142.163 42.9631V45.1304C141.594 45.2246 141.016 45.2672 140.438 45.2577C137.374 45.2577 136.18 44.2377 136.18 41.6364V33.9483H133.979V31.768H136.18V28.5938H139.3Z"/><path fill="#fff" d="M143.845 38.4752C143.845 34.255 146.649 31.603 151.021 31.603C155.409 31.603 158.2 34.2549 158.2 38.4752C158.2 42.7071 155.423 45.3474 151.021 45.3474C146.621 45.3474 143.845 42.707 143.845 38.4752ZM155.035 38.4752C155.035 35.5802 153.538 33.8716 151.021 33.8716C148.505 33.8716 147.009 35.5932 147.009 38.4752C147.009 41.3818 148.505 43.0774 151.021 43.0774C153.538 43.0774 155.035 41.3818 155.035 38.4752H155.035Z"/><path fill="#fff" d="M160.76 31.7667H163.722V34.0497H163.794C163.994 33.3367 164.466 32.7066 165.129 32.2652C165.791 31.8239 166.605 31.5983 167.434 31.6264C167.792 31.6252 168.149 31.6597 168.498 31.7291V34.3043C168.046 34.1819 167.575 34.1258 167.102 34.138C166.651 34.1217 166.201 34.1923 165.784 34.3447C165.366 34.4971 164.991 34.7278 164.683 35.021C164.376 35.3142 164.143 35.6629 164.002 36.0431C163.861 36.4234 163.815 36.8262 163.866 37.2239V45.1798H160.76L160.76 31.7667Z"/><path fill="#fff" d="M182.82 41.2415C182.402 43.6764 179.727 45.3474 176.304 45.3474C171.902 45.3474 169.17 42.7331 169.17 38.5389C169.17 34.3317 171.917 31.603 176.174 31.603C180.36 31.603 182.993 34.1522 182.993 38.2191V39.1624H172.305V39.3288C172.256 39.8225 172.326 40.3197 172.51 40.7877C172.694 41.2556 172.988 41.6834 173.373 42.0427C173.758 42.4021 174.225 42.6847 174.743 42.8718C175.261 43.0589 175.817 43.1463 176.376 43.128C177.11 43.189 177.847 43.0383 178.476 42.6984C179.106 42.3585 179.595 41.8475 179.87 41.2414L182.82 41.2415ZM172.32 37.2382H179.885C179.913 36.7944 179.837 36.3502 179.662 35.9336C179.487 35.517 179.217 35.1369 178.868 34.8173C178.52 34.4976 178.101 34.2453 177.637 34.076C177.173 33.9068 176.675 33.8244 176.174 33.834C175.668 33.8313 175.166 33.9174 174.698 34.0874C174.23 34.2574 173.805 34.5079 173.447 34.8244C173.088 35.1409 172.804 35.5171 172.611 35.9314C172.418 36.3457 172.319 36.7899 172.32 37.2382V37.2382Z"/><path fill="#fff" d="M63.2204 12.9353C63.8715 12.8939 64.525 12.9811 65.1335 13.1906C65.7421 13.4002 66.2906 13.7268 66.7395 14.147C67.1884 14.5672 67.5265 15.0705 67.7294 15.6205C67.9323 16.1705 67.995 16.7536 67.9129 17.3277C67.9129 20.1518 66.1909 21.7752 63.2204 21.7752H59.6182V12.9353H63.2204ZM61.1671 20.525H63.0473C63.5127 20.5497 63.9783 20.4821 64.4104 20.3271C64.8425 20.1721 65.2302 19.9337 65.5453 19.6291C65.8603 19.3246 66.0948 18.9616 66.2316 18.5666C66.3684 18.1716 66.4041 17.7545 66.3362 17.3457C66.3992 16.9386 66.3598 16.5241 66.2209 16.132C66.082 15.7399 65.847 15.3799 65.5326 15.0778C65.2183 14.7756 64.8325 14.5389 64.4028 14.3845C63.9732 14.23 63.5103 14.1618 63.0473 14.1845H61.1671V20.525Z"/><path fill="#fff" d="M69.6623 18.4379C69.615 17.9995 69.6716 17.5572 69.8284 17.1393C69.9852 16.7214 70.2389 16.3372 70.573 16.0113C70.9072 15.6854 71.3146 15.425 71.7689 15.2468C72.2233 15.0686 72.7146 14.9766 73.2115 14.9766C73.7083 14.9766 74.1996 15.0686 74.654 15.2468C75.1084 15.425 75.5157 15.6854 75.8499 16.0113C76.184 16.3372 76.4377 16.7214 76.5945 17.1393C76.7513 17.5572 76.8079 17.9995 76.7606 18.4379C76.8088 18.8768 76.7529 19.3197 76.5965 19.7383C76.4401 20.1568 76.1866 20.5417 75.8523 20.8683C75.5181 21.1948 75.1104 21.4558 74.6556 21.6343C74.2008 21.8129 73.7089 21.9052 73.2115 21.9052C72.714 21.9052 72.2221 21.8129 71.7673 21.6343C71.3125 21.4558 70.9048 21.1948 70.5706 20.8683C70.2363 20.5417 69.9828 20.1568 69.8264 19.7383C69.67 19.3197 69.6141 18.8768 69.6623 18.4379ZM75.2329 18.4379C75.2329 16.9919 74.5 16.1462 73.2139 16.1462C71.9229 16.1462 71.1966 16.9919 71.1966 18.4379C71.1966 19.8956 71.9229 20.7347 73.2139 20.7347C74.5001 20.7347 75.2329 19.8897 75.2329 18.4379H75.2329Z"/><path fill="#fff" d="M86.1963 21.7751H84.6555L83.1 16.8618H82.9825L81.4336 21.7751H79.9075L77.833 15.104H79.3395L80.6877 20.1944H80.7987L82.346 15.104H83.7709L85.3182 20.1944H85.4357L86.7773 15.104H88.2626L86.1963 21.7751Z"/><path fill="#fff" d="M90.0078 15.1036H91.4376V16.1634H91.5486C91.7369 15.7827 92.0544 15.4637 92.457 15.2506C92.8596 15.0376 93.3271 14.9412 93.7945 14.9748C94.1607 14.9504 94.5284 14.9994 94.8703 15.118C95.2123 15.2367 95.5197 15.422 95.7699 15.6603C96.0201 15.8986 96.2066 16.1837 96.3155 16.4946C96.4245 16.8054 96.4532 17.134 96.3994 17.456V21.7746H94.9141V17.7867C94.9141 16.7146 94.3886 16.1815 93.2901 16.1815C93.0415 16.1712 92.7933 16.2087 92.5626 16.2914C92.3318 16.3741 92.124 16.5001 91.9533 16.6607C91.7826 16.8212 91.6531 17.0126 91.5737 17.2217C91.4942 17.4308 91.4668 17.6526 91.4931 17.872V21.7747H90.0078L90.0078 15.1036Z"/><path fill="#fff" d="M98.7656 12.5H100.251V21.7753H98.7656V12.5Z"/><path fill="#fff" d="M102.316 18.4356C102.268 17.9972 102.325 17.5548 102.482 17.1369C102.639 16.719 102.892 16.3348 103.227 16.0089C103.561 15.683 103.968 15.4225 104.423 15.2444C104.877 15.0662 105.368 14.9741 105.865 14.9741C106.362 14.9741 106.853 15.0662 107.308 15.2444C107.762 15.4225 108.17 15.683 108.504 16.0089C108.838 16.3348 109.092 16.719 109.248 17.1369C109.405 17.5548 109.462 17.9972 109.415 18.4356C109.463 18.8745 109.407 19.3174 109.25 19.736C109.094 20.1545 108.84 20.5394 108.506 20.866C108.172 21.1925 107.764 21.4534 107.309 21.632C106.855 21.8106 106.363 21.9028 105.865 21.9028C105.368 21.9028 104.876 21.8106 104.421 21.632C103.966 21.4534 103.558 21.1925 103.224 20.866C102.89 20.5394 102.636 20.1545 102.48 19.736C102.323 19.3174 102.267 18.8745 102.316 18.4356ZM107.886 18.4356C107.886 16.9895 107.153 16.1439 105.867 16.1439C104.576 16.1439 103.85 16.9895 103.85 18.4356C103.85 19.8932 104.576 20.7324 105.867 20.7324C107.153 20.7323 107.886 19.8874 107.886 18.4356H107.886Z"/><path fill="#fff" d="M110.979 19.8898C110.979 18.689 111.987 17.9967 113.778 17.8983L115.816 17.7942V17.2183C115.816 16.5138 115.291 16.1159 114.276 16.1159C113.446 16.1159 112.872 16.3857 112.707 16.8574H111.269C111.421 15.7115 112.637 14.9766 114.344 14.9766C116.231 14.9766 117.295 15.8092 117.295 17.2183V21.7764H115.865V20.8389H115.748C115.509 21.1752 115.174 21.4493 114.777 21.6334C114.38 21.8174 113.935 21.9047 113.487 21.8863C113.171 21.9155 112.852 21.8856 112.55 21.7986C112.248 21.7117 111.969 21.5695 111.733 21.3814C111.497 21.1933 111.307 20.9634 111.178 20.7065C111.048 20.4496 110.98 20.1714 110.979 19.8898ZM115.816 19.3198V18.762L113.978 18.8662C112.942 18.9277 112.472 19.2402 112.472 19.8283C112.472 20.4287 113.06 20.7781 113.868 20.7781C114.104 20.7994 114.343 20.7782 114.571 20.7158C114.798 20.6535 115.009 20.5512 115.191 20.4151C115.372 20.2791 115.522 20.112 115.629 19.9238C115.737 19.7356 115.8 19.5302 115.816 19.3198Z"/><path fill="#fff" d="M119.247 18.4369C119.247 16.3289 120.47 14.9935 122.371 14.9935C122.841 14.9743 123.308 15.0742 123.717 15.2814C124.126 15.4887 124.459 15.7948 124.679 16.1639H124.79V12.5H126.275V21.7753H124.852V20.7213H124.734C124.498 21.088 124.152 21.3902 123.736 21.5954C123.319 21.8006 122.847 21.9008 122.371 21.8852C120.457 21.8853 119.247 20.5499 119.247 18.4369ZM120.781 18.4369C120.781 19.8518 121.534 20.7033 122.792 20.7033C124.044 20.7033 124.818 19.8395 124.818 18.4427C124.818 17.0523 124.036 16.1763 122.792 16.1763C121.542 16.1763 120.781 17.0335 120.781 18.4369H120.781Z"/><path fill="#fff" d="M132.42 18.4379C132.373 17.9995 132.429 17.5572 132.586 17.1393C132.743 16.7214 132.997 16.3372 133.331 16.0113C133.665 15.6854 134.072 15.425 134.527 15.2468C134.981 15.0686 135.472 14.9766 135.969 14.9766C136.466 14.9766 136.957 15.0686 137.412 15.2468C137.866 15.425 138.274 15.6854 138.608 16.0113C138.942 16.3372 139.196 16.7214 139.352 17.1393C139.509 17.5572 139.566 17.9995 139.518 18.4379C139.567 18.8768 139.511 19.3197 139.354 19.7383C139.198 20.1568 138.944 20.5417 138.61 20.8683C138.276 21.1948 137.868 21.4558 137.413 21.6343C136.959 21.8129 136.467 21.9052 135.969 21.9052C135.472 21.9052 134.98 21.8129 134.525 21.6343C134.07 21.4558 133.663 21.1948 133.328 20.8683C132.994 20.5417 132.741 20.1568 132.584 19.7383C132.428 19.3197 132.372 18.8768 132.42 18.4379ZM137.991 18.4379C137.991 16.9919 137.258 16.1462 135.972 16.1462C134.681 16.1462 133.954 16.9919 133.954 18.4379C133.954 19.8956 134.681 20.7347 135.972 20.7347C137.258 20.7347 137.991 19.8897 137.991 18.4379Z"/><path fill="#fff" d="M141.512 15.1036H142.942V16.1634H143.053C143.241 15.7827 143.558 15.4637 143.961 15.2506C144.364 15.0376 144.831 14.9412 145.298 14.9748C145.665 14.9504 146.032 14.9994 146.374 15.118C146.716 15.2367 147.024 15.422 147.274 15.6603C147.524 15.8986 147.71 16.1837 147.819 16.4946C147.928 16.8054 147.957 17.134 147.903 17.456V21.7746H146.418V17.7867C146.418 16.7146 145.892 16.1815 144.794 16.1815C144.545 16.1712 144.297 16.2087 144.066 16.2914C143.836 16.3741 143.628 16.5001 143.457 16.6607C143.287 16.8212 143.157 17.0126 143.078 17.2217C142.998 17.4308 142.971 17.6526 142.997 17.872V21.7747H141.512V15.1036Z"/><path fill="#fff" d="M156.296 13.4434V15.1346H157.926V16.2436H156.296V19.6739C156.296 20.3727 156.621 20.6787 157.36 20.6787C157.549 20.6782 157.738 20.668 157.926 20.6483V21.745C157.66 21.7873 157.389 21.8098 157.119 21.8122C155.467 21.8122 154.809 21.2972 154.809 20.011V16.2435H153.614V15.1346H154.809V13.4434H156.296Z"/><path fill="#fff" d="M159.955 12.5H161.427V16.1763H161.545C161.742 15.7921 162.069 15.4712 162.479 15.2574C162.89 15.0435 163.365 14.9471 163.84 14.9812C164.204 14.9637 164.568 15.0176 164.906 15.1391C165.244 15.2607 165.548 15.4468 165.795 15.6844C166.043 15.9219 166.228 16.205 166.338 16.5133C166.448 16.8217 166.48 17.1477 166.431 17.4682V21.7753H164.945V17.793C164.945 16.7275 164.385 16.1878 163.335 16.1878C163.08 16.1693 162.823 16.2004 162.583 16.279C162.343 16.3576 162.125 16.4818 161.944 16.6429C161.764 16.804 161.625 16.9981 161.538 17.2116C161.451 17.4251 161.418 17.653 161.44 17.8791V21.7753H159.955L159.955 12.5Z"/><path fill="#fff" d="M175.092 19.9728C174.89 20.5825 174.453 21.1099 173.857 21.4627C173.261 21.8156 172.544 21.9714 171.831 21.9028C171.335 21.9144 170.842 21.8303 170.387 21.6561C169.931 21.482 169.524 21.2221 169.193 20.8945C168.863 20.5669 168.616 20.1794 168.471 19.7589C168.326 19.3384 168.287 18.8951 168.354 18.4595C168.288 18.0226 168.329 17.5783 168.474 17.1566C168.618 16.7348 168.863 16.3455 169.192 16.015C169.521 15.6846 169.927 15.4206 170.381 15.241C170.835 15.0615 171.327 14.9705 171.824 14.9742C173.918 14.9742 175.182 16.2424 175.182 18.3372V18.7966H169.867V18.8704C169.844 19.1152 169.879 19.3616 169.969 19.5939C170.06 19.8261 170.204 20.039 170.393 20.2189C170.581 20.3989 170.81 20.5419 171.065 20.6388C171.32 20.7356 171.595 20.7843 171.872 20.7816C172.227 20.8194 172.587 20.7627 172.906 20.6186C173.225 20.4746 173.488 20.2498 173.662 19.9728L175.092 19.9728ZM169.867 17.8229H173.669C173.687 17.599 173.653 17.3741 173.568 17.1627C173.483 16.9513 173.349 16.758 173.174 16.5952C173 16.4325 172.789 16.3039 172.555 16.2177C172.321 16.1315 172.069 16.0896 171.816 16.0948C171.559 16.0919 171.304 16.1347 171.066 16.2205C170.828 16.3063 170.612 16.4335 170.431 16.5946C170.249 16.7557 170.106 16.9473 170.009 17.1583C169.912 17.3692 169.864 17.5952 169.867 17.8229H169.867Z"/></g><defs><clipPath id="clip0"><rect width="200" height="59.26" fill="#fff"/></clipPath></defs></svg>