<svg xmlns="http://www.w3.org/2000/svg" width="582" height="805" fill="none" viewBox="0 0 582 805"><path fill="#212437" d="M633.182 403.37C633.182 531.6 529.23 635.551 401 635.551C272.77 635.551 168.818 531.6 168.818 403.37V401.79C168.818 273.56 272.77 169.609 401 169.609C529.23 169.609 633.182 273.56 633.182 401.79V403.37Z"/><path stroke="#212437" d="M801 404.159C801 625.073 621.914 804.159 401 804.159C180.086 804.159 1 625.073 1 404.159V401C1 180.086 180.086 1 401 1C621.914 1 801 180.086 801 401V404.159Z" opacity=".5"/><path stroke="#212437" d="M666.747 403.369C666.747 550.136 547.768 669.114 401.001 669.114C254.234 669.114 135.256 550.136 135.256 403.369V401.789C135.256 255.022 254.234 136.044 401.001 136.044C547.768 136.044 666.747 255.022 666.747 401.789V403.369Z"/></svg>