<svg xmlns="http://www.w3.org/2000/svg" width="200" height="60" fill="none" viewBox="0 0 200 60"><path fill="#000" d="M192.593 59.2593H7.40741C3.33333 59.2593 0 55.9259 0 51.8519V7.40742C0 3.33335 3.33333 1.90735e-05 7.40741 1.90735e-05H192.593C196.667 1.90735e-05 200 3.33335 200 7.40742V51.8519C200 55.9259 196.667 59.2593 192.593 59.2593Z"/><path fill="#A6A6A6" d="M192.593 1.90735e-05H7.40741C3.33333 1.90735e-05 0 3.33335 0 7.40742V51.8519C0 55.9259 3.33333 59.2593 7.40741 59.2593H192.593C196.667 59.2593 200 55.9259 200 51.8519V7.40742C200 3.33335 196.667 1.90735e-05 192.593 1.90735e-05ZM192.593 1.1852C196.024 1.1852 198.815 3.97691 198.815 7.40742V51.8519C198.815 55.283 196.024 58.0747 192.593 58.0747H7.40741C3.97689 58.0747 1.18519 55.283 1.18519 51.8519V7.40742C1.18519 3.97691 3.97689 1.1852 7.40741 1.1852H192.593Z"/><path fill="#fff" d="M70.249 15.1751C70.249 16.4163 69.8814 17.4048 69.1453 18.1421C68.3091 19.0189 67.2193 19.4575 65.8796 19.4575C64.5967 19.4575 63.5059 19.0131 62.6088 18.123C61.7102 17.2335 61.2617 16.1306 61.2617 14.8146C61.2617 13.498 61.7102 12.3956 62.6088 11.5055C63.5059 10.616 64.5967 10.171 65.8796 10.171C66.5162 10.171 67.1257 10.2954 67.7044 10.5437C68.2831 10.7926 68.7472 11.123 69.0945 11.5368L68.3131 12.3186C67.7247 11.6154 66.9145 11.2642 65.8796 11.2642C64.9439 11.2642 64.1349 11.5929 63.4521 12.2509C62.7691 12.9095 62.4278 13.7636 62.4278 14.8146C62.4278 15.8655 62.7691 16.7196 63.4521 17.3783C64.1349 18.0362 64.9439 18.3649 65.8796 18.3649C66.8722 18.3649 67.6998 18.0344 68.3623 17.3725C68.7924 16.9412 69.0411 16.3418 69.1076 15.572H65.8796V14.5043H70.1871C70.2287 14.7365 70.249 14.9593 70.249 15.1751Z"/><path fill="#fff" d="M70.2497 15.1754H70.1015C70.1003 16.3883 69.7461 17.3304 69.0412 18.0377L69.0396 18.0388L69.039 18.04C68.2294 18.8865 67.1888 19.3079 65.8803 19.3097C64.6316 19.3079 63.5864 18.882 62.7137 18.0185C61.8428 17.1534 61.4122 16.0972 61.4106 14.8148C61.4122 13.5319 61.8428 12.4763 62.7137 11.6117C63.5864 10.7477 64.6316 10.3212 65.8803 10.3194C66.4978 10.3194 67.0858 10.4399 67.6466 10.68C68.2079 10.922 68.6513 11.239 68.9817 11.6326L69.0951 11.5371L68.9904 11.4323L68.2091 12.2147L68.3138 12.3188L68.4279 12.224C67.812 11.4861 66.9476 11.1141 65.8803 11.1163C64.91 11.1151 64.0563 11.4618 63.3503 12.1448C62.6374 12.83 62.2791 13.732 62.2803 14.8148C62.2791 15.8977 62.6374 16.7997 63.3503 17.4849C64.0563 18.1679 64.91 18.5145 65.8803 18.5134C66.9058 18.5151 67.7797 18.1673 68.4677 17.4775C68.9273 17.0168 69.1877 16.3785 69.256 15.5851L69.2698 15.4242H66.0285V14.6528H70.1877V14.5046L70.0418 14.5307C70.0824 14.7553 70.1015 14.9688 70.1015 15.1754H70.2497H70.3978C70.3978 14.9503 70.3769 14.7188 70.3335 14.4781L70.3116 14.3565H65.7322V15.5723V15.7205H69.1083V15.5723L68.9608 15.5596C68.8954 16.3051 68.6581 16.8664 68.2583 17.268C67.6217 17.9023 66.8405 18.2153 65.8803 18.2171C64.9793 18.2159 64.2149 17.9057 63.5557 17.272C62.903 16.6406 62.5783 15.8345 62.5766 14.8148C62.5783 13.7951 62.903 12.9891 63.5557 12.3577C64.2149 11.724 64.9793 11.4138 65.8803 11.4126C66.8821 11.415 67.6386 11.746 68.2005 12.4144L68.3046 12.5383L69.1999 11.6418L69.2959 11.5458L69.2085 11.4421C68.8445 11.0082 68.3596 10.6637 67.7634 10.408C67.1663 10.1516 66.536 10.0231 65.8803 10.0231C64.5633 10.022 63.4267 10.4849 62.5048 11.4011C61.5794 12.3154 61.1131 13.4648 61.1143 14.8148C61.1131 16.1643 61.5794 17.3143 62.5054 18.2292C63.4267 19.1448 64.5633 19.6071 65.8803 19.606C67.2519 19.6071 68.3897 19.1516 69.2531 18.2448L69.146 18.1424L69.2507 18.2471C70.0181 17.4803 70.3989 16.4445 70.3978 15.1754H70.2497Z"/><path fill="#fff" d="M77.0778 11.4624H73.0299V14.2808H76.6804V15.3489H73.0299V18.1673H77.0778V19.2593H71.8887V10.3704H77.0778V11.4624Z"/><path fill="#fff" d="M77.0776 11.4622V11.314H72.8814V14.4287H76.5319V15.2001L72.8814 15.2006V18.3152H76.9294V19.1109H72.0365V10.5183H76.9294V11.4622H77.0776V11.314V11.4622H77.2257V10.3702V10.222H71.7402V19.4072H77.2257V18.1671V18.0189H73.1777V15.4969H76.8282V14.2806V14.1324H73.1777V11.6103H77.2257V11.4622H77.0776Z"/><path fill="#fff" d="M81.8952 19.2593H80.7522V11.4624H78.2695V10.3704H84.3778V11.4624H81.8952V19.2593Z"/><path fill="#fff" d="M81.8949 19.2591V19.1109H80.9001V11.314H78.4174V10.5183H84.2294V11.314H81.7467V19.2591H81.8949V19.1109V19.2591H82.043V11.6103H84.5257V10.3702V10.222H78.1211V11.4622V11.6103H80.6038V19.4072H81.8949H82.043V19.2591H81.8949Z"/><path fill="#fff" d="M88.7969 19.2593V10.3704H89.9387V19.2593H88.7969Z"/><path fill="#fff" d="M88.7966 19.2591H88.9447V10.5183H89.7902V19.1109H88.7966V19.2591H88.9447H88.7966V19.4072H89.9384H90.0865V10.222H88.7966H88.6484V19.4072H88.7966V19.2591Z"/><path fill="#fff" d="M95.0054 19.2593H93.8624V11.4624H91.3799V10.3704H97.488V11.4624H95.0054V19.2593Z"/><path fill="#fff" d="M95.0051 19.2591V19.1109H94.0103V11.314H91.5277V10.5183H97.3396V11.314H94.8569V19.2591H95.0051V19.1109V19.2591H95.1532V11.6103H97.6359V10.3702V10.222H91.2314V11.4622V11.6103H93.714V19.4072H95.0051H95.1532V19.2591H95.0051Z"/><path fill="#fff" d="M103.377 17.3661C104.035 18.0322 104.84 18.3649 105.792 18.3649C106.744 18.3649 107.55 18.0322 108.207 17.3661C108.865 16.7 109.195 15.8486 109.195 14.8146C109.195 13.7805 108.865 12.9291 108.207 12.263C107.55 11.5969 106.744 11.2642 105.792 11.2642C104.84 11.2642 104.035 11.5969 103.377 12.263C102.72 12.9291 102.391 13.7805 102.391 14.8146C102.391 15.8486 102.72 16.7 103.377 17.3661ZM109.052 18.1103C108.178 19.0089 107.091 19.4575 105.792 19.4575C104.492 19.4575 103.406 19.0089 102.534 18.1103C101.66 17.2126 101.225 16.1138 101.225 14.8146C101.225 13.5153 101.66 12.4163 102.534 11.5188C103.406 10.62 104.492 10.171 105.792 10.171C107.084 10.171 108.168 10.6224 109.046 11.5246C109.923 12.4269 110.361 13.5234 110.361 14.8146C110.361 16.1138 109.924 17.2126 109.052 18.1103Z"/><path fill="#fff" d="M103.377 17.3664L103.272 17.4705C103.954 18.1633 104.805 18.5151 105.792 18.5134C106.778 18.5151 107.631 18.1633 108.312 17.4705C108.999 16.7772 109.344 15.8802 109.343 14.8148C109.344 13.7495 108.999 12.8525 108.312 12.1591C107.631 11.4664 106.778 11.1145 105.792 11.1163C104.805 11.1145 103.954 11.4664 103.272 12.1591C102.587 12.8525 102.24 13.7495 102.242 14.8148C102.24 15.8802 102.587 16.7772 103.272 17.4705L103.377 17.3664L103.482 17.2622C102.854 16.6227 102.54 15.8183 102.539 14.8148C102.54 13.8114 102.854 13.007 103.482 12.3674C104.117 11.728 104.874 11.4144 105.792 11.4126C106.709 11.4144 107.468 11.728 108.101 12.3674C108.731 13.007 109.045 13.8114 109.046 14.8148C109.045 15.8183 108.731 16.6227 108.101 17.2622C107.468 17.9017 106.709 18.2153 105.792 18.2171C104.874 18.2153 104.117 17.9017 103.482 17.2622L103.377 17.3664ZM109.051 18.1105L108.945 18.0076C108.096 18.878 107.057 19.3079 105.792 19.3097C104.526 19.3079 103.488 18.878 102.64 18.0076L102.636 18.003L102.64 18.0076C101.792 17.1343 101.374 16.0811 101.372 14.8148C101.374 13.5486 101.792 12.4954 102.64 11.6221C103.488 10.7517 104.526 10.3212 105.792 10.3194C107.049 10.3212 108.085 10.7535 108.94 11.6285C109.79 12.5058 110.211 13.5574 110.213 14.8148C110.211 16.0811 109.791 17.1343 108.945 18.0076L109.051 18.1105L109.158 18.2135C110.056 17.2911 110.51 16.147 110.509 14.8148C110.51 13.4903 110.054 12.3485 109.152 11.422C108.249 10.4919 107.118 10.0215 105.792 10.0231C104.459 10.0215 103.324 10.4897 102.427 11.4162V11.4156C101.528 12.3385 101.075 13.4827 101.076 14.8148C101.075 16.147 101.528 17.2911 102.427 18.2141L102.431 18.2183L102.427 18.2135C103.324 19.14 104.459 19.6071 105.792 19.606C107.125 19.6071 108.259 19.14 109.158 18.2135L109.051 18.1105Z"/><path fill="#fff" d="M111.963 19.2593V10.3704H113.353L117.673 17.2853H117.722L117.673 15.5723V10.3704H118.816V19.2593H117.624L113.104 12.0092H113.055L113.104 13.7228V19.2593H111.963Z"/><path fill="#fff" d="M111.964 19.2591H112.112V10.5183H113.271L117.591 17.4333H117.723H117.875L117.822 15.5699V10.5183H118.668V19.1109H117.707L113.187 11.8609H113.056H112.903L112.957 13.725V19.1109H111.964V19.2591H112.112H111.964V19.4072H113.105H113.253V13.7203L113.204 12.005L113.056 12.009V12.1572H113.105V12.009L112.979 12.0878L117.542 19.4072H118.817H118.965V10.222H117.674H117.525V15.5739L117.575 17.2892L117.723 17.2852V17.137H117.674V17.2852L117.799 17.2065L113.436 10.222H111.964H111.815V19.4072H111.964V19.2591Z"/><path fill="#fff" d="M158.424 44.4446H161.188V25.9243H158.424V44.4446ZM183.323 32.5957L180.154 40.6252H180.059L176.77 32.5957H173.793L178.725 43.8184L175.913 50.0609H178.797L186.397 32.5957H183.323ZM167.646 42.341C166.739 42.341 165.477 41.8884 165.477 40.7681C165.477 39.3387 167.05 38.7907 168.407 38.7907C169.624 38.7907 170.194 39.0527 170.933 39.4105C170.719 41.1258 169.242 42.341 167.646 42.341ZM167.979 32.1905C165.978 32.1905 163.905 33.0724 163.047 35.0262L165.501 36.0505C166.025 35.0262 167.002 34.6923 168.027 34.6923C169.456 34.6923 170.91 35.5505 170.933 37.0754V37.2658C170.433 36.9798 169.362 36.5511 168.05 36.5511C165.406 36.5511 162.713 38.0041 162.713 40.7206C162.713 43.1987 164.882 44.7953 167.311 44.7953C169.17 44.7953 170.194 43.9613 170.839 42.9846H170.933V44.4139H173.602V37.3132C173.602 34.0256 171.148 32.1905 167.979 32.1905ZM150.895 34.8502H146.963V28.5019H150.895C152.962 28.5019 154.135 30.213 154.135 31.676C154.135 33.1113 152.962 34.8502 150.895 34.8502ZM150.824 25.9243H144.2V44.4446H146.963V37.4278H150.824C153.887 37.4278 156.899 35.2096 156.899 31.676C156.899 28.1425 153.887 25.9243 150.824 25.9243ZM114.704 42.3444C112.794 42.3444 111.195 40.7455 111.195 38.5493C111.195 36.3301 112.794 34.7068 114.704 34.7068C116.589 34.7068 118.069 36.3301 118.069 38.5493C118.069 40.7455 116.589 42.3444 114.704 42.3444ZM117.878 33.6327H117.782C117.162 32.893 115.968 32.2247 114.465 32.2247C111.314 32.2247 108.427 34.9932 108.427 38.5493C108.427 42.0818 111.314 44.8265 114.465 44.8265C115.968 44.8265 117.162 44.1581 117.782 43.3948H117.878V44.3016C117.878 46.7126 116.589 48.0013 114.513 48.0013C112.818 48.0013 111.768 46.7837 111.338 45.7576L108.928 46.76C109.62 48.4307 111.458 50.4834 114.513 50.4834C117.759 50.4834 120.503 48.5736 120.503 43.9197V32.6067H117.878V33.6327ZM122.413 44.4446H125.181V25.9237H122.413V44.4446ZM129.263 38.3347C129.191 35.9 131.148 34.6593 132.556 34.6593C133.655 34.6593 134.585 35.2078 134.895 35.9961L129.263 38.3347ZM137.855 36.2345C137.33 34.8259 135.73 32.2247 132.461 32.2247C129.215 32.2247 126.518 34.7785 126.518 38.5256C126.518 42.0581 129.191 44.8265 132.771 44.8265C135.659 44.8265 137.33 43.0603 138.022 42.0342L135.874 40.6019C135.159 41.6523 134.179 42.3444 132.771 42.3444C131.363 42.3444 130.361 41.6998 129.716 40.4352L138.141 36.9504L137.855 36.2345ZM70.7316 34.1581V36.8311H77.1279C76.937 38.3347 76.4358 39.4324 75.6719 40.1963C74.7414 41.1274 73.2854 42.1535 70.7316 42.1535C66.7934 42.1535 63.7147 38.9793 63.7147 35.0412C63.7147 31.1031 66.7934 27.9284 70.7316 27.9284C72.8559 27.9284 74.4069 28.764 75.5527 29.8381L77.4381 27.9527C75.8392 26.4249 73.7147 25.2554 70.7316 25.2554C65.3374 25.2554 60.8027 29.6471 60.8027 35.0412C60.8027 40.4353 65.3374 44.8265 70.7316 44.8265C73.6436 44.8265 75.8392 43.8723 77.5574 42.0818C79.3236 40.3155 79.8728 37.8335 79.8728 35.8289C79.8728 35.2078 79.8253 34.6355 79.7293 34.1581H70.7316ZM87.1448 42.3444C85.235 42.3444 83.5881 40.7692 83.5881 38.5256C83.5881 36.2582 85.235 34.7068 87.1448 34.7068C89.0538 34.7068 90.7008 36.2582 90.7008 38.5256C90.7008 40.7692 89.0538 42.3444 87.1448 42.3444ZM87.1448 32.2247C83.6598 32.2247 80.8195 34.8739 80.8195 38.5256C80.8195 42.1535 83.6598 44.8265 87.1448 44.8265C90.6291 44.8265 93.4694 42.1535 93.4694 38.5256C93.4694 34.8739 90.6291 32.2247 87.1448 32.2247ZM100.942 42.3444C99.0331 42.3444 97.386 40.7692 97.386 38.5256C97.386 36.2582 99.0331 34.7068 100.942 34.7068C102.851 34.7068 104.498 36.2582 104.498 38.5256C104.498 40.7692 102.851 42.3444 100.942 42.3444ZM100.942 32.2247C97.4573 32.2247 94.6176 34.8739 94.6176 38.5256C94.6176 42.1535 97.4573 44.8265 100.942 44.8265C104.427 44.8265 107.267 42.1535 107.267 38.5256C107.267 34.8739 104.427 32.2247 100.942 32.2247Z"/><path fill="url(#paint0_linear)" d="M15.5701 47.9844L15.46 47.879C15.0289 47.4229 14.7744 46.7146 14.7744 45.7974V46.0133V13.2488C14.7744 13.2459 14.7744 13.2436 14.7744 13.2413C14.7744 13.2441 14.7744 13.2464 14.7744 13.2494V13.4659C14.7744 12.4727 15.0712 11.7245 15.5683 11.2759L33.9236 29.6307L15.5701 47.9844ZM14.7744 13.2395C14.7744 13.1579 14.7766 13.0786 14.7808 13.0005C14.7766 13.078 14.7744 13.1579 14.7744 13.2395ZM14.7808 12.997C14.7808 12.9959 14.7808 12.9947 14.7812 12.9936C14.7808 12.9947 14.7808 12.9959 14.7808 12.997ZM14.7812 12.9866C14.7812 12.986 14.7812 12.9854 14.7812 12.9848C14.7812 12.9854 14.7812 12.986 14.7812 12.9866Z"/><path fill="url(#paint1_linear)" d="M40.0413 35.9678L40.1809 35.8885L47.4296 31.7698C48.1207 31.377 48.5813 30.9007 48.8111 30.3967C48.5819 30.9007 48.1212 31.3776 47.4296 31.7704L40.1809 35.8891L40.0413 35.9678ZM40.0431 35.7507L33.9238 29.6304L40.0425 23.5112L47.4296 27.7079C48.3677 28.241 48.8943 28.9279 48.9823 29.6298C48.9823 29.6304 48.9823 29.6316 48.9823 29.6327C48.8943 30.333 48.3677 31.0205 47.4296 31.5534L40.0431 35.7507Z"/><path fill="url(#paint2_linear)" d="M16.8789 48.6831C16.3662 48.6831 15.9188 48.5164 15.5699 48.2016L15.5705 48.201C15.9194 48.5158 16.3674 48.6831 16.8801 48.6831C16.9245 48.6831 16.9697 48.6819 17.0155 48.6797C16.9691 48.6819 16.9234 48.6831 16.8789 48.6831ZM16.8795 48.4661C16.3668 48.4667 15.9194 48.2994 15.5705 47.9846V47.9841L33.9239 29.6305L40.0432 35.7508L18.5392 47.969C17.9442 48.3064 17.3805 48.4661 16.8795 48.4661ZM15.5653 48.1976C15.5328 48.1681 15.501 48.1369 15.4697 48.1044L15.5653 48.1976Z"/><path fill="url(#paint3_linear)" d="M33.9236 29.6309L15.5684 11.276C15.9172 10.9618 16.3641 10.7952 16.8762 10.7952C17.3786 10.7952 17.9427 10.9555 18.5389 11.2934L40.0423 23.5116L33.9236 29.6309ZM40.1807 23.3734L18.5389 11.0771C17.9427 10.739 17.3786 10.5787 16.8762 10.5787C16.8738 10.5787 16.8722 10.5787 16.8698 10.5787C16.8728 10.5787 16.875 10.5787 16.8786 10.5787C17.3798 10.5787 17.9433 10.7384 18.5389 11.0765L40.1807 23.3734Z"/><path fill="#000" d="M17.0151 48.6797C17.4809 48.653 17.9966 48.4927 18.5388 48.1855L40.041 35.9678L18.5388 48.1855C17.997 48.4933 17.4809 48.653 17.0151 48.6797ZM15.5694 48.2016L15.5649 48.1976C15.5665 48.1988 15.5683 48.2004 15.5694 48.2016ZM15.4693 48.1044L15.46 48.0952V48.0947C15.4635 48.0981 15.4663 48.1015 15.4693 48.1044Z"/><path fill="url(#paint4_linear)" d="M40.041 35.9678L40.1806 35.8885L40.041 35.9678Z"/><path fill="url(#paint5_linear)" d="M16.8797 48.6831C16.3669 48.6831 15.9189 48.5158 15.57 48.201L15.5694 48.2016C15.5683 48.2004 15.5665 48.1988 15.5649 48.1976L15.4693 48.1044C15.4663 48.1015 15.4635 48.0981 15.46 48.0947L15.57 47.9846C15.9189 48.2994 16.3663 48.4667 16.8791 48.4661C17.3801 48.4661 17.9438 48.3064 18.5388 47.969L40.0428 35.7508L40.1806 35.8886L40.041 35.9678L18.5388 48.1855C17.9966 48.4927 17.4809 48.653 17.0151 48.6797C16.9693 48.6819 16.9241 48.6831 16.8797 48.6831Z"/><path fill="#000" d="M15.46 48.0957C15.0289 47.6396 14.7744 46.9313 14.7744 46.0141V46.0135C14.7744 46.9313 15.0289 47.639 15.46 48.0951V48.0957Z"/><path fill="url(#paint6_linear)" d="M15.46 48.0952C15.0289 47.6391 14.7744 46.9314 14.7744 46.0136V45.7977C14.7744 46.7149 15.0289 47.4232 15.46 47.8794L15.5701 47.9847L15.46 48.0952Z"/><path fill="url(#paint7_linear)" d="M15.46 48.0952L15.57 47.9847V47.9851L15.46 48.0952Z"/><path fill="#000" d="M48.8105 30.397C48.9245 30.1469 48.9818 29.89 48.9818 29.633C48.9818 29.6325 48.9818 29.6319 48.9818 29.6319C48.9818 29.8894 48.9245 30.1463 48.8105 30.397Z"/><path fill="url(#paint8_linear)" d="M40.1807 35.8887L40.043 35.7509L47.4295 31.5536C48.3676 31.0207 48.8942 30.3331 48.9822 29.6328C48.9822 29.8899 48.9249 30.1467 48.811 30.3968C48.5812 30.9008 48.1206 31.3771 47.4295 31.77L40.1807 35.8887Z"/><path fill="#404040" d="M48.9827 29.6309V29.6303C48.9821 28.8553 48.4642 28.0805 47.43 27.4925L40.1813 23.3738H40.1807L40.1813 23.3734L47.43 27.4919C48.4654 28.0799 48.9839 28.8559 48.9827 29.6309Z"/><path fill="url(#paint9_linear)" d="M48.9818 29.6304C48.8938 28.9284 48.3672 28.2415 47.4291 27.7084L40.042 23.5117L40.1798 23.3739H40.1804L47.4291 27.4926C48.4633 28.0806 48.9812 28.8554 48.9818 29.6304Z"/><path fill="#404040" d="M14.7744 13.2412C14.7744 13.2406 14.7744 13.24 14.7744 13.2394C14.7744 13.24 14.7744 13.2406 14.7744 13.2412ZM14.7808 13.0005C14.7808 12.9993 14.7808 12.9981 14.7808 12.9969C14.7808 12.9981 14.7808 12.9993 14.7808 13.0005ZM14.7812 12.9935C14.7812 12.9911 14.7812 12.9889 14.7812 12.9865C14.7812 12.9889 14.7812 12.9911 14.7812 12.9935ZM14.7812 12.9848C14.867 11.4628 15.6946 10.5837 16.8652 10.5785C16.3577 10.5815 15.9156 10.7482 15.5695 11.06V11.0594L15.5654 11.0636C15.5289 11.0965 15.4943 11.1313 15.46 11.1671C15.0712 11.5785 14.8258 12.1948 14.7812 12.9848Z"/><path fill="url(#paint10_linear)" d="M14.7744 13.4658V13.2494C14.7744 13.2464 14.7744 13.244 14.7744 13.2412C14.7744 13.2406 14.7744 13.24 14.7744 13.2395C14.7744 13.1578 14.7766 13.078 14.7808 13.0005C14.7808 12.9993 14.7808 12.9981 14.7808 12.9969C14.7808 12.9959 14.7808 12.9947 14.7812 12.9935C14.7812 12.9912 14.7812 12.9889 14.7812 12.9866C14.7812 12.986 14.7812 12.9854 14.7812 12.9848C14.8258 12.1949 15.0712 11.5786 15.46 11.1672L15.5683 11.2759C15.0712 11.7245 14.7744 12.4726 14.7744 13.4658ZM15.5654 11.0636L15.5695 11.0594C15.5683 11.0612 15.5666 11.0624 15.5654 11.0636Z"/><path fill="url(#paint11_linear)" d="M40.0422 23.5117L18.5388 11.2935C17.9426 10.9556 17.3785 10.7953 16.8761 10.7953C16.364 10.7953 15.9171 10.9619 15.5683 11.2762L15.46 11.1674C15.4942 11.1316 15.5288 11.0968 15.5653 11.0639C15.5665 11.0627 15.5683 11.0615 15.5694 11.0603C15.9155 10.7485 16.3576 10.5818 16.8651 10.5788C16.8663 10.5788 16.868 10.5788 16.8697 10.5788C16.8721 10.5788 16.8737 10.5788 16.8761 10.5788C17.3785 10.5788 17.9426 10.7391 18.5388 11.0772L40.1806 23.3735L40.18 23.3739L40.0422 23.5117Z"/><defs><linearGradient id="paint0_linear" x1="32.296" x2="7.433" y1="12.903" y2="37.766" gradientUnits="userSpaceOnUse"><stop stop-color="#00A0FF"/><stop offset=".007" stop-color="#00A1FF"/><stop offset=".26" stop-color="#00BEFF"/><stop offset=".512" stop-color="#00D2FF"/><stop offset=".76" stop-color="#00DFFF"/><stop offset="1" stop-color="#00E3FF"/></linearGradient><linearGradient id="paint1_linear" x1="50.125" x2="14.278" y1="29.631" y2="29.631" gradientUnits="userSpaceOnUse"><stop stop-color="#FFE000"/><stop offset=".409" stop-color="#FFBD00"/><stop offset=".775" stop-color="orange"/><stop offset="1" stop-color="#FF9C00"/></linearGradient><linearGradient id="paint2_linear" x1="36.781" x2="3.065" y1="33.031" y2="66.747" gradientUnits="userSpaceOnUse"><stop stop-color="#FF3A44"/><stop offset="1" stop-color="#C31162"/></linearGradient><linearGradient id="paint3_linear" x1="10.811" x2="25.866" y1=".261" y2="15.317" gradientUnits="userSpaceOnUse"><stop stop-color="#32A071"/><stop offset=".069" stop-color="#2DA771"/><stop offset=".476" stop-color="#15CF74"/><stop offset=".801" stop-color="#06E775"/><stop offset="1" stop-color="#00F076"/></linearGradient><linearGradient id="paint4_linear" x1="50.125" x2="14.277" y1="29.632" y2="29.632" gradientUnits="userSpaceOnUse"><stop stop-color="#CCB300"/><stop offset=".409" stop-color="#CC9700"/><stop offset=".775" stop-color="#CC8400"/><stop offset="1" stop-color="#CC7D00"/></linearGradient><linearGradient id="paint5_linear" x1="36.781" x2="3.065" y1="33.031" y2="66.747" gradientUnits="userSpaceOnUse"><stop stop-color="#CC2E36"/><stop offset="1" stop-color="#9C0E4E"/></linearGradient><linearGradient id="paint6_linear" x1="32.296" x2="7.433" y1="12.903" y2="37.767" gradientUnits="userSpaceOnUse"><stop stop-color="#008DE0"/><stop offset=".007" stop-color="#008DE0"/><stop offset=".26" stop-color="#00A7E0"/><stop offset=".512" stop-color="#00B8E0"/><stop offset=".76" stop-color="#00C4E0"/><stop offset="1" stop-color="#00C7E0"/></linearGradient><linearGradient id="paint7_linear" x1="36.781" x2="3.066" y1="33.032" y2="66.748" gradientUnits="userSpaceOnUse"><stop stop-color="#E0333C"/><stop offset="1" stop-color="#AB0F56"/></linearGradient><linearGradient id="paint8_linear" x1="50.125" x2="14.278" y1="29.631" y2="29.631" gradientUnits="userSpaceOnUse"><stop stop-color="#E0C500"/><stop offset=".409" stop-color="#E0A600"/><stop offset=".775" stop-color="#E09100"/><stop offset="1" stop-color="#E08900"/></linearGradient><linearGradient id="paint9_linear" x1="50.125" x2="14.277" y1="29.632" y2="29.632" gradientUnits="userSpaceOnUse"><stop stop-color="#FFE840"/><stop offset=".409" stop-color="#FFCE40"/><stop offset=".775" stop-color="#FFBC40"/><stop offset="1" stop-color="#FFB540"/></linearGradient><linearGradient id="paint10_linear" x1="32.296" x2="7.433" y1="12.903" y2="37.766" gradientUnits="userSpaceOnUse"><stop stop-color="#40B8FF"/><stop offset=".007" stop-color="#40B9FF"/><stop offset=".26" stop-color="#40CEFF"/><stop offset=".512" stop-color="#40DDFF"/><stop offset=".76" stop-color="#40E7FF"/><stop offset="1" stop-color="#40EAFF"/></linearGradient><linearGradient id="paint11_linear" x1="10.811" x2="25.866" y1=".261" y2="15.317" gradientUnits="userSpaceOnUse"><stop stop-color="#65B895"/><stop offset=".069" stop-color="#62BD95"/><stop offset=".476" stop-color="#50DB97"/><stop offset=".801" stop-color="#44ED98"/><stop offset="1" stop-color="#40F498"/></linearGradient></defs></svg>