<svg xmlns="http://www.w3.org/2000/svg" width="50" height="50" fill="none" viewBox="0 0 50 50"><circle cx="25" cy="25" r="25" fill="#6936DB"/><path fill="#fff" d="M24.5 13C27.8962 13 28.32 13.0125 29.6525 13.075C30.9837 13.1375 31.89 13.3463 32.6875 13.6563C33.5125 13.9738 34.2075 14.4037 34.9025 15.0975C35.5381 15.7224 36.0299 16.4782 36.3438 17.3125C36.6525 18.1087 36.8625 19.0162 36.925 20.3475C36.9838 21.68 37 22.1038 37 25.5C37 28.8962 36.9875 29.32 36.925 30.6525C36.8625 31.9837 36.6525 32.89 36.3438 33.6875C36.0308 34.5222 35.5389 35.2783 34.9025 35.9025C34.2775 36.5379 33.5216 37.0297 32.6875 37.3438C31.8912 37.6525 30.9837 37.8625 29.6525 37.925C28.32 37.9838 27.8962 38 24.5 38C21.1038 38 20.68 37.9875 19.3475 37.925C18.0162 37.8625 17.11 37.6525 16.3125 37.3438C15.4779 37.0306 14.7219 36.5387 14.0975 35.9025C13.4618 35.2777 12.9699 34.5218 12.6563 33.6875C12.3463 32.8912 12.1375 31.9837 12.075 30.6525C12.0162 29.32 12 28.8962 12 25.5C12 22.1038 12.0125 21.68 12.075 20.3475C12.1375 19.015 12.3463 18.11 12.6563 17.3125C12.969 16.4777 13.461 15.7217 14.0975 15.0975C14.7221 14.4615 15.478 13.9697 16.3125 13.6563C17.11 13.3463 18.015 13.1375 19.3475 13.075C20.68 13.0162 21.1038 13 24.5 13ZM24.5 19.25C22.8424 19.25 21.2527 19.9085 20.0806 21.0806C18.9085 22.2527 18.25 23.8424 18.25 25.5C18.25 27.1576 18.9085 28.7473 20.0806 29.9194C21.2527 31.0915 22.8424 31.75 24.5 31.75C26.1576 31.75 27.7473 31.0915 28.9194 29.9194C30.0915 28.7473 30.75 27.1576 30.75 25.5C30.75 23.8424 30.0915 22.2527 28.9194 21.0806C27.7473 19.9085 26.1576 19.25 24.5 19.25ZM32.625 18.9375C32.625 18.5231 32.4604 18.1257 32.1674 17.8326C31.8743 17.5396 31.4769 17.375 31.0625 17.375C30.6481 17.375 30.2507 17.5396 29.9576 17.8326C29.6646 18.1257 29.5 18.5231 29.5 18.9375C29.5 19.3519 29.6646 19.7493 29.9576 20.0424C30.2507 20.3354 30.6481 20.5 31.0625 20.5C31.4769 20.5 31.8743 20.3354 32.1674 20.0424C32.4604 19.7493 32.625 19.3519 32.625 18.9375ZM24.5 21.75C25.4946 21.75 26.4484 22.1451 27.1517 22.8483C27.8549 23.5516 28.25 24.5054 28.25 25.5C28.25 26.4946 27.8549 27.4484 27.1517 28.1517C26.4484 28.8549 25.4946 29.25 24.5 29.25C23.5054 29.25 22.5516 28.8549 21.8483 28.1517C21.1451 27.4484 20.75 26.4946 20.75 25.5C20.75 24.5054 21.1451 23.5516 21.8483 22.8483C22.5516 22.1451 23.5054 21.75 24.5 21.75Z"/></svg>