<svg xmlns="http://www.w3.org/2000/svg" width="150" height="61" fill="none" viewBox="0 0 150 61"><path fill="#000" d="M24.0852 31.0168C25.3612 31.4348 26.3732 32.1388 27.1212 33.1288C27.8692 34.0968 28.2432 35.3068 28.2432 36.7588C28.2432 38.7608 27.4732 40.3118 25.9332 41.4118C24.3932 42.4898 22.1492 43.0288 19.2012 43.0288H7.71723V19.9288H18.5412C21.2692 19.9288 23.3702 20.4678 24.8442 21.5458C26.3182 22.6018 27.0552 24.0648 27.0552 25.9348C27.0552 27.0788 26.7912 28.0908 26.2632 28.9708C25.7352 29.8508 25.0092 30.5328 24.0852 31.0168ZM12.0072 23.2948V29.6638H18.0792C19.5752 29.6638 20.7192 29.3998 21.5112 28.8718C22.3252 28.3218 22.7322 27.5298 22.7322 26.4958C22.7322 25.4398 22.3252 24.6478 21.5112 24.1198C20.7192 23.5698 19.5752 23.2948 18.0792 23.2948H12.0072ZM18.9372 39.6628C22.2592 39.6628 23.9202 38.5518 23.9202 36.3298C23.9202 34.1078 22.2592 32.9968 18.9372 32.9968H12.0072V39.6628H18.9372Z"/><path fill="#000" d="M71.3107 17.5428V42.0288H67.3507V39.7518C66.6687 40.5878 65.8217 41.2148 64.8097 41.6328C63.8197 42.0508 62.7197 42.2598 61.5097 42.2598C59.8157 42.2598 58.2867 41.8858 56.9227 41.1378C55.5807 40.3898 54.5247 39.3338 53.7547 37.9698C52.9847 36.5838 52.5997 34.9998 52.5997 33.2178C52.5997 31.4358 52.9847 29.8628 53.7547 28.4988C54.5247 27.1348 55.5807 26.0788 56.9227 25.3308C58.2867 24.5828 59.8157 24.2088 61.5097 24.2088C62.6757 24.2088 63.7427 24.4068 64.7107 24.8028C65.6787 25.1988 66.5037 25.7928 67.1857 26.5848V17.5428H71.3107ZM62.0047 38.7288C62.9947 38.7288 63.8857 38.5088 64.6777 38.0688C65.4697 37.6068 66.0967 36.9578 66.5587 36.1218C67.0207 35.2858 67.2517 34.3178 67.2517 33.2178C67.2517 32.1178 67.0207 31.1498 66.5587 30.3138C66.0967 29.4778 65.4697 28.8398 64.6777 28.3998C63.8857 27.9378 62.9947 27.7068 62.0047 27.7068C61.0147 27.7068 60.1237 27.9378 59.3317 28.3998C58.5397 28.8398 57.9127 29.4778 57.4507 30.3138C56.9887 31.1498 56.7577 32.1178 56.7577 33.2178C56.7577 34.3178 56.9887 35.2858 57.4507 36.1218C57.9127 36.9578 58.5397 37.6068 59.3317 38.0688C60.1237 38.5088 61.0147 38.7288 62.0047 38.7288ZM83.439 24.2088C86.035 24.2088 88.015 24.8358 89.379 26.0898C90.765 27.3218 91.458 29.1918 91.458 31.6998V42.0288H87.564V39.8838C87.058 40.6538 86.332 41.2478 85.386 41.6658C84.462 42.0618 83.34 42.2598 82.02 42.2598C80.7 42.2598 79.545 42.0398 78.555 41.5998C77.565 41.1378 76.795 40.5108 76.245 39.7188C75.717 38.9048 75.453 37.9918 75.453 36.9798C75.453 35.3958 76.036 34.1308 77.202 33.1848C78.39 32.2168 80.249 31.7328 82.779 31.7328H87.333V31.4688C87.333 30.2368 86.959 29.2908 86.211 28.6308C85.485 27.9708 84.396 27.6408 82.944 27.6408C81.954 27.6408 80.975 27.7948 80.007 28.1028C79.061 28.4108 78.258 28.8398 77.598 29.3898L75.981 26.3868C76.905 25.6828 78.016 25.1438 79.314 24.7698C80.612 24.3958 81.987 24.2088 83.439 24.2088ZM82.878 39.2568C83.912 39.2568 84.825 39.0258 85.617 38.5638C86.431 38.0798 87.003 37.3978 87.333 36.5178V34.4718H83.076C80.7 34.4718 79.512 35.2528 79.512 36.8148C79.512 37.5628 79.809 38.1568 80.403 38.5968C80.997 39.0368 81.822 39.2568 82.878 39.2568ZM112.93 24.4068L104.68 43.4478C103.91 45.3618 102.975 46.7038 101.875 47.4738C100.775 48.2658 99.4436 48.6618 97.8816 48.6618C97.0016 48.6618 96.1326 48.5188 95.2746 48.2328C94.4166 47.9468 93.7126 47.5508 93.1626 47.0448L94.8126 44.0088C95.2086 44.3828 95.6706 44.6798 96.1986 44.8998C96.7486 45.1198 97.2986 45.2298 97.8486 45.2298C98.5746 45.2298 99.1686 45.0428 99.6306 44.6688C100.115 44.2948 100.555 43.6678 100.951 42.7878L101.248 42.0948L93.5586 24.4068H97.8486L103.393 37.4418L108.97 24.4068H112.93Z"/><path fill="#6936DB" stroke="#6936DB" stroke-linecap="round" stroke-linejoin="round" stroke-width="2" d="M51.2899 14.0146C52.368 5.38965 48.1925 1.07715 40.6456 1.07715C33.0987 1.07715 28.6493 6.46777 29.7274 14.0146C30.8056 21.5615 37.5492 26.9521 40.6456 26.9521C43.743 26.9521 50.2118 22.6396 51.2899 14.0146Z"/><path stroke="#6936DB" stroke-linecap="round" stroke-linejoin="round" stroke-width="2" d="M41.5869 26.9521C39.4307 27.9979 36.1963 31.145 36.1963 34.499C36.1963 37.8531 46.9775 36.0558 46.9775 39.411C46.9775 42.7639 35.1182 44.2022 35.1182 44.2022"/></svg>