<svg width="896" height="502" viewBox="0 0 896 502" fill="none" xmlns="http://www.w3.org/2000/svg">
<path fill-rule="evenodd" clip-rule="evenodd" d="M106.039 0V0.461334C106.039 160.571 235.834 290.366 395.944 290.366C556.054 290.366 685.848 160.571 685.848 0.461334V0H106.039Z" fill="#212437"/>
<path fill-rule="evenodd" clip-rule="evenodd" d="M63.6309 0V0.460846C63.6309 183.992 212.412 332.773 395.943 332.773C579.475 332.773 728.256 183.992 728.256 0.460846V0H727.256V0.460846C727.256 183.44 578.922 331.773 395.943 331.773C212.965 331.773 64.6309 183.44 64.6309 0.460846V0H63.6309Z" fill="#212437"/>
<path opacity="0.5" fill-rule="evenodd" clip-rule="evenodd" d="M-104 0.000488281V1.44785C-104 277.56 119.833 501.392 395.944 501.392C672.056 501.392 895.889 277.56 895.889 1.44785V0.000488281H894.889V1.44785C894.889 277.007 671.504 500.392 395.944 500.392C120.385 500.392 -103 277.007 -103 1.44785V0.000488281H-104Z" fill="#212437"/>
</svg>
