<svg xmlns="http://www.w3.org/2000/svg" width="50" height="50" fill="none" viewBox="0 0 50 50"><circle cx="25" cy="25" r="25" fill="#6936DB"/><path fill="#fff" d="M38.7217 19.4718L35.1943 22.9991C35.0995 26.4855 33.7688 29.8856 31.5103 32.3819C28.8649 35.3057 25.2128 36.8511 20.9489 36.8511C16.8028 36.8511 14.6657 34.7617 14.5767 34.6727C14.4552 34.5512 14.3689 34.399 14.327 34.2323C14.2852 34.0656 14.2893 33.8906 14.339 33.7261C14.3887 33.5616 14.4821 33.4136 14.6093 33.298C14.7365 33.1824 14.8926 33.1034 15.0611 33.0695C16.0751 32.864 18.5919 32.0642 19.663 30.6225C18.5146 29.9603 17.4949 29.0968 16.6527 28.0731C13.6728 24.4547 13.736 19.9074 14.3138 16.7299C14.3464 16.5505 14.4299 16.3843 14.5544 16.2511C14.6789 16.1179 14.839 16.0234 15.0158 15.9787C15.1926 15.934 15.3784 15.9412 15.5512 15.9993C15.7241 16.0574 15.8765 16.164 15.9904 16.3063C16.023 16.3469 19.1455 20.1725 23.799 21.4224V20.7003C23.8091 19.1791 24.4228 17.7241 25.5053 16.6552C26.5877 15.5863 28.0503 14.991 29.5716 15.0001C30.5598 15.0138 31.5276 15.2835 32.3804 15.783C33.2331 16.2825 33.9418 16.9947 34.4371 17.8499H38.0499C38.2378 17.8499 38.4215 17.9056 38.5778 18.01C38.734 18.1144 38.8558 18.2628 38.9277 18.4364C38.9996 18.61 39.0184 18.801 38.9817 18.9853C38.9451 19.1696 38.8546 19.3389 38.7217 19.4718Z"/></svg>